<?xml version="1.0" encoding="UTF-8"?>
<svg version="1.1" xmlns="http://www.w3.org/2000/svg" width="512" height="512">
<path d="M0 0 C1.15334807 -0.01125335 1.15334807 -0.01125335 2.32999611 -0.02273405 C4.88467597 -0.04392208 7.43889149 -0.04395107 9.99365234 -0.04379272 C11.83405258 -0.05441541 13.67444618 -0.06624725 15.51483154 -0.07919312 C20.49822667 -0.10988636 25.48147822 -0.12110479 30.46495819 -0.12683535 C33.5807609 -0.13119671 36.6965267 -0.13957663 39.81231689 -0.14933395 C50.68853656 -0.1830441 61.56464796 -0.20021178 72.44091797 -0.20297241 C82.5704277 -0.20600968 92.69932822 -0.24649583 102.82866096 -0.30412066 C111.53548061 -0.35190447 120.24209903 -0.37270448 128.949049 -0.37276304 C134.14508943 -0.37330083 139.34053212 -0.38486478 144.53643799 -0.42393875 C149.42217645 -0.45981312 154.30680064 -0.46207833 159.19260406 -0.43876648 C160.98243661 -0.43590795 162.77233495 -0.44494865 164.56203461 -0.46694565 C179.75795161 -0.64209661 179.75795161 -0.64209661 184.58448792 3.47105408 C185.73976925 4.75531831 186.86376088 6.06842659 187.95458984 7.40786743 C189.23584905 8.67024565 190.52911932 9.92052997 191.83311462 11.15940857 C193.19635612 12.516803 194.55695694 13.87685323 195.9152832 15.23916626 C196.66587006 15.98800079 197.41645691 16.73683533 198.18978882 17.50836182 C200.64384051 19.95804947 203.09426064 22.41133199 205.54443359 24.86489868 C207.25681702 26.57660793 208.96934883 28.28816876 210.68202209 29.99958801 C214.25668278 33.57277949 217.8295409 37.14776099 221.40112305 40.72402954 C225.98672886 45.31535816 230.57684428 49.90214808 235.16829586 54.48762989 C238.698424 58.01415353 242.22617815 61.54304419 245.75320625 65.07266808 C247.44582208 66.76595214 249.13918425 68.4584905 250.83329582 70.15027809 C253.19117242 72.50562723 255.54584039 74.86413693 257.8996582 77.22354126 C258.60350143 77.92536026 259.30734467 78.62717926 260.03251648 79.3502655 C260.67021973 79.99078857 261.30792297 80.63131165 261.96495056 81.29124451 C262.5214627 81.84813367 263.07797483 82.40502283 263.65135098 82.97878742 C266.03443158 85.59197901 266.08140725 87.48781696 266.08881092 90.91801357 C266.09326876 91.87314577 266.09772661 92.82827796 266.10231954 93.81235355 C266.10204299 95.39737622 266.10204299 95.39737622 266.10176086 97.01441956 C266.10543755 98.13134408 266.10911424 99.24826861 266.11290234 100.39903933 C266.12397593 104.16753021 266.12778928 107.93599355 266.1315918 111.70449829 C266.13785381 114.39627244 266.14448736 117.0880436 266.15150452 119.77981567 C266.17128391 127.87847304 266.18133903 135.97713169 266.19023231 144.07580718 C266.19461459 147.8903223 266.19998172 151.70483603 266.20522118 155.51935005 C266.22223831 168.20251013 266.23673058 180.88566933 266.24396992 193.56883907 C266.24587981 196.86161742 266.24780014 200.15439575 266.24975586 203.44717407 C266.2502396 204.26557672 266.25072334 205.08397936 266.25122174 205.92718209 C266.2595148 219.17281303 266.28483727 232.41835345 266.31733654 245.66394489 C266.35043788 259.26602241 266.36842163 272.86805399 266.37161416 286.47017199 C266.37377689 294.10586788 266.3824903 301.74143195 266.40807533 309.37708855 C266.42982477 315.88312665 266.43781216 322.38900093 266.42810855 328.89507126 C266.42357533 332.2120133 266.42759065 335.52834467 266.44487 338.84528542 C266.46259395 342.44996071 266.45547895 346.05378614 266.44233704 349.65846252 C266.45879091 351.21337045 266.45879091 351.21337045 266.47557718 352.79969066 C266.38475452 363.15749754 263.36220503 372.92111106 255.95458984 380.40786743 C247.10967015 387.78358066 239.11667194 390.86942716 227.72073364 390.79554749 C226.71640002 390.80093302 225.7120664 390.80631856 224.67729843 390.8118673 C221.32575511 390.82612775 217.97460781 390.8190477 214.62304688 390.81192017 C212.21447432 390.81762473 209.80590446 390.82458933 207.39733887 390.8327179 C201.54227995 390.84879361 195.6873202 390.8507517 189.83225097 390.84550499 C185.07088407 390.84145658 180.30954883 390.84291481 175.54818344 390.84825325 C174.86941572 390.84900167 174.19064801 390.84975009 173.49131157 390.8505212 C172.11219915 390.85205274 170.73308673 390.85359109 169.35397433 390.85513616 C156.43267625 390.86885124 143.51143879 390.86343066 130.59014212 390.85195095 C118.78300222 390.84202111 106.97601909 390.85495664 95.16890337 390.87888514 C83.02999231 390.90329971 70.89115419 390.91287814 58.75221908 390.90623242 C51.94328812 390.90274523 45.13447767 390.90493899 38.32556534 390.92248344 C31.92165829 390.93878034 25.5179765 390.93398709 19.11407471 390.9151783 C16.76716036 390.91149475 14.42022381 390.91459399 12.07332993 390.92506409 C8.86268128 390.93829126 5.65302007 390.92671019 2.44241333 390.90907288 C1.51982542 390.91867788 0.59723751 390.92828289 -0.3533076 390.93817896 C-10.13132756 390.82811452 -18.98782679 387.24581646 -26.04541016 380.40786743 C-34.73118217 370.16981889 -36.4960875 360.98274406 -36.43309021 347.79559326 C-36.43726862 346.42622723 -36.44274891 345.05686467 -36.44941002 343.68750846 C-36.46381701 339.94368717 -36.45963487 336.20008691 -36.45224321 332.45625377 C-36.44750201 328.41115318 -36.4600298 324.36609975 -36.47026062 320.3210144 C-36.48743551 312.40365921 -36.48829133 304.48638343 -36.48304772 296.56901444 C-36.47900224 290.13195802 -36.48045406 283.69492503 -36.48579597 277.25786972 C-36.4865444 276.34084515 -36.48729282 275.42382058 -36.48806392 274.47900739 C-36.48959544 272.61592023 -36.49113379 270.75283308 -36.49267889 268.88974594 C-36.50639926 251.42744334 -36.50096956 233.96518558 -36.48949368 216.50288402 C-36.47956242 200.53852246 -36.49250093 184.57427683 -36.51642787 168.60993315 C-36.54082901 152.20519303 -36.5504242 135.80050688 -36.54377514 119.39574897 C-36.5402851 110.19075072 -36.54250077 100.98584159 -36.56002617 91.78085709 C-36.57476086 83.94465082 -36.57536707 76.10859645 -36.55795526 68.27239312 C-36.54945318 64.27704698 -36.54727611 60.28197204 -36.56260681 56.28664017 C-36.57648788 52.62364274 -36.57164753 48.96114797 -36.55236758 45.29817937 C-36.54685174 43.35720416 -36.5608506 41.41620314 -36.57572168 39.47527707 C-36.48378957 28.48910117 -33.96378786 18.41084319 -26.04541016 10.40786743 C-18.15059875 3.82444248 -10.37854328 -0.05853854 0 0 Z " fill="#0F67B1" transform="translate(141.04541015625,60.592132568359375)"/>
<path d="M0 0 C1.0296157 -0.01043099 2.0592314 -0.02086198 3.12004757 -0.03160906 C4.24960652 -0.02268617 5.37916548 -0.01376328 6.54295349 -0.00457001 C7.74411332 -0.01080997 8.94527315 -0.01704993 10.18283176 -0.02347898 C13.5184522 -0.03669053 16.85317407 -0.03191335 20.18874025 -0.01953411 C23.78526715 -0.01049788 27.38171452 -0.02444621 30.97822571 -0.0354538 C38.02432289 -0.05325896 45.07024984 -0.04939021 52.11635375 -0.03780323 C57.84183003 -0.02877701 63.56725852 -0.02754139 69.29273987 -0.0318985 C70.10699922 -0.03251143 70.92125857 -0.03312436 71.76019245 -0.03375587 C73.41424141 -0.03503474 75.06829035 -0.0363316 76.72233927 -0.03764623 C92.23965936 -0.04905788 107.75688499 -0.03592919 123.27418959 -0.01444477 C136.59453776 0.00342676 149.91474651 0.00032281 163.23509216 -0.01811981 C178.69612265 -0.03951623 194.1570703 -0.04795919 209.61811352 -0.03567076 C211.26614569 -0.03439653 212.91417788 -0.03313905 214.56221008 -0.0318985 C215.3731157 -0.0312814 216.18402132 -0.03066429 217.01949984 -0.03002849 C222.73942491 -0.0265719 228.45929753 -0.03241058 234.17921448 -0.04181671 C241.1480236 -0.05302445 248.11665246 -0.05002261 255.08544087 -0.02869374 C258.64243319 -0.01816663 262.19912474 -0.01408934 265.75611496 -0.02729034 C269.60824629 -0.04137069 273.45988296 -0.02458154 277.31199646 -0.00457001 C278.44155541 -0.01349289 279.57111437 -0.02241578 280.73490238 -0.03160906 C282.27932593 -0.01596257 282.27932593 -0.01596257 283.85494995 0 C284.744365 0.00064941 285.63378004 0.00129882 286.55014706 0.00196791 C289.74653077 0.6761097 290.94382218 1.95235232 292.92747498 4.50336456 C293.32215678 7.44504113 293.47479711 10.01199951 293.4450531 12.95282745 C293.45556702 14.22930145 293.45556702 14.22930145 293.46629333 15.53156281 C293.48390456 18.34671381 293.47223231 21.16085941 293.45872498 23.97602081 C293.46142074 25.9393559 293.46530386 27.90268968 293.47032166 29.8660202 C293.4762224 33.98606801 293.46764164 38.10576917 293.44895935 42.22577667 C293.42627458 47.48236557 293.43922253 52.73813278 293.46324921 57.9946909 C293.47778157 62.05361234 293.47306547 66.11234281 293.46273804 70.17127037 C293.46008577 72.1075672 293.4632872 74.04388187 293.47265625 75.98015785 C293.52401961 89.5904777 293.09447221 102.22774557 282.92747498 112.50336456 C274.08255528 119.8790778 266.08955707 122.96492429 254.69361877 122.89104462 C253.68928515 122.89643015 252.68495153 122.90181569 251.65018356 122.90736443 C248.29864024 122.92162488 244.94749294 122.91454483 241.59593201 122.9074173 C239.18735945 122.91312187 236.7787896 122.92008646 234.370224 122.92821503 C228.51516508 122.94429074 222.66020533 122.94624883 216.8051361 122.94100212 C212.04376921 122.93695371 207.28243396 122.93841194 202.52106857 122.94375038 C201.502917 122.94487301 201.502917 122.94487301 200.4641967 122.94601833 C199.08508428 122.94754987 197.70597187 122.94908822 196.32685946 122.95063329 C183.40556139 122.96434838 170.48432393 122.95892779 157.56302725 122.94744808 C145.75588735 122.93751824 133.94890422 122.95045377 122.1417885 122.97438227 C110.00287744 122.99879684 97.86403932 123.00837527 85.72510421 123.00172955 C78.91617326 122.99824236 72.1073628 123.00043612 65.29845047 123.01798058 C58.89454342 123.03427747 52.49086163 123.02948422 46.08695984 123.01067543 C43.74004549 123.00699188 41.39310894 123.01009112 39.04621506 123.02056122 C35.83556642 123.03378839 32.6259052 123.02220732 29.41529846 123.00457001 C28.0314166 123.01897752 28.0314166 123.01897752 26.61957753 123.03367609 C16.84155757 122.92361165 7.98505835 119.3413136 0.92747498 112.50336456 C-6.31825498 103.962715 -9.53979555 95.51955454 -9.47657776 84.37519073 C-9.48344101 83.51223389 -9.49030426 82.64927704 -9.49737549 81.76016998 C-9.51551694 78.93871872 -9.51182696 76.11782973 -9.50611877 73.29633331 C-9.51068404 71.32337515 -9.51599064 69.35041858 -9.52200317 67.37746429 C-9.53090735 63.25798802 -9.52853881 59.13870593 -9.51856995 55.0192337 C-9.50703615 49.73859117 -9.52737275 44.45861298 -9.55648708 39.17805767 C-9.5748134 35.11087034 -9.57456458 31.04384368 -9.56884956 26.97662544 C-9.56869617 25.02895228 -9.57475576 23.08126836 -9.58714104 21.13363457 C-9.60199576 18.41684933 -9.59141806 15.70131152 -9.57423401 12.98456573 C-9.58390198 12.18087051 -9.59356995 11.37717529 -9.60353088 10.54912567 C-9.55856408 7.15927794 -9.47395097 5.01992897 -7.3582325 2.29737234 C-4.64130072 0.16490491 -3.41402438 0.00249276 0 0 Z " fill="#3FA2F5" transform="translate(114.07252502441406,328.4966354370117)"/>
<path d="M0 0 C4.24237911 1.70904144 7.21225466 5.20826394 10.36809921 8.4152565 C11.17706146 9.21370483 11.98602371 10.01215317 12.81949997 10.83479691 C15.48656194 13.47547409 18.13110295 16.13747038 20.77483749 18.80148697 C22.62244068 20.64504824 24.47093374 22.48771806 26.32027817 24.32953262 C30.19261709 28.19096847 34.05216285 32.06485322 37.90472031 35.94601822 C42.35331142 40.42726079 46.8231062 44.88647765 51.30452907 49.33486855 C55.62231068 53.62209876 59.9229911 57.92606692 64.21673584 62.23736572 C66.042382 64.06701452 67.87249616 65.89221629 69.70711517 67.71286774 C72.26906817 70.25958356 74.81099961 72.82474236 77.34856796 75.39572525 C78.49084602 76.51978523 78.49084602 76.51978523 79.65620041 77.6665535 C85.30611941 83.45508336 85.30611941 83.45508336 86.13399887 87.6310463 C85.97014999 90.79367447 85.97014999 90.79367447 84.88627243 92.70592117 C82.26253599 94.19537608 80.32759322 94.18180191 77.31219101 94.1977272 C75.56876167 94.21675346 75.56876167 94.21675346 73.79011154 94.23616409 C72.53081329 94.23322845 71.27151505 94.23029282 69.97405624 94.22726822 C68.02546959 94.235131 68.02546959 94.235131 66.03751755 94.24315262 C63.28099522 94.25209538 60.52476226 94.24965398 57.7682457 94.23971939 C54.26823653 94.22832397 50.76925054 94.24828686 47.2693758 94.27763653 C43.9000534 94.3006412 40.53095478 94.29351783 37.16155624 94.28976822 C35.92047607 94.3010022 34.6793959 94.31223618 33.40070724 94.32381058 C21.30177154 94.22848535 10.68845447 91.56218032 1.97014999 82.79367447 C-6.85619344 72.40164438 -8.49191854 63.07224424 -8.42828751 49.67648697 C-8.43031245 48.32890033 -8.43322739 46.98131476 -8.43698502 45.63373184 C-8.44137955 42.82821453 -8.43506498 40.02298605 -8.42096329 37.21750259 C-8.40377291 33.62277013 -8.4137918 30.02870491 -8.43168068 26.4339962 C-8.44251226 23.65960005 -8.43907689 20.8853628 -8.4312973 18.11096191 C-8.42832924 16.14167977 -8.43742346 14.1723914 -8.44668961 12.20312881 C-8.43723312 11.01113876 -8.42777664 9.81914871 -8.4180336 8.59103775 C-8.41564682 7.54118698 -8.41326004 6.49133621 -8.41080093 5.40967178 C-8.02985001 2.79367447 -8.02985001 2.79367447 -6.94308853 0.86883926 C-4.52930683 -0.48761111 -2.69923196 -0.53511938 0 0 Z " fill="#3DA3F5" transform="translate(321.0298500061035,61.20632553100586)"/>
<path d="M0 0 C4.478307 2.26417198 8.01433986 4.78528784 10.09448242 9.45922852 C11.3290263 14.28656469 11.305319 18.87587152 11.30078125 23.83984375 C11.30506638 24.88016251 11.3093515 25.92048126 11.31376648 26.99232483 C11.31949535 29.18685175 11.32002071 31.38139765 11.31567383 33.57592773 C11.31251398 36.92269452 11.33599143 40.26857674 11.36132812 43.61523438 C11.36360136 45.75260306 11.3643045 47.8899741 11.36328125 50.02734375 C11.372491 51.02233383 11.38170074 52.01732391 11.39118958 53.04246521 C11.34336288 60.26854859 10.41023355 65.14577605 5.625 70.8125 C0.73991976 74.8834002 -3.34377551 75.4031429 -9.5703125 75.24609375 C-14.54376538 74.74235174 -17.60586774 72.6621198 -20.8125 69 C-23.61271029 65.15971161 -24.12619595 62.62132661 -24.17700195 57.99707031 C-24.18983719 56.97881165 -24.20267242 55.96055298 -24.21589661 54.91143799 C-24.22328354 53.8114447 -24.23067047 52.71145142 -24.23828125 51.578125 C-24.246353 50.44477722 -24.25442474 49.31142944 -24.26274109 48.14373779 C-24.27657902 45.74297616 -24.28730247 43.34219488 -24.29516602 40.94140625 C-24.31236728 37.27826429 -24.3562563 33.61602748 -24.40039062 29.953125 C-24.41051871 27.6197983 -24.41903445 25.28646393 -24.42578125 22.953125 C-24.44328934 21.86122864 -24.46079742 20.76933228 -24.47883606 19.64434814 C-24.45650013 11.77395097 -23.23546891 7.32061283 -17.625 1.5625 C-11.95199518 -0.8827607 -6.08633174 -0.79015535 0 0 Z " fill="#FAFCFE" transform="translate(275,353)"/>
<path d="M0 0 C4.95 0 9.9 0 15 0 C15.92025044 3.16566152 16.83620605 6.33247387 17.75 9.5 C18.00265625 10.36753906 18.2553125 11.23507812 18.515625 12.12890625 C20.89081577 20.38269417 22.91218175 28.648727 25 37 C25.33 24.79 25.66 12.58 26 0 C29.3 0 32.6 0 36 0 C36 24.09 36 48.18 36 73 C32.37 73 28.74 73 25 73 C22.79154046 67.36520107 21.02684375 61.76417461 19.51953125 55.90625 C19.19295784 54.65805481 19.19295784 54.65805481 18.85978699 53.38464355 C18.17338045 50.75744698 17.49284546 48.12877191 16.8125 45.5 C16.34479027 43.70562767 15.87669494 41.9113558 15.40820312 40.1171875 C14.267677 35.74593972 13.13240979 31.37335709 12 27 C11.9845388 27.84231422 11.9845388 27.84231422 11.96876526 28.7016449 C11.86092315 34.52493466 11.74630792 40.34806264 11.62768555 46.17114258 C11.58426493 48.34688953 11.54259529 50.52267214 11.50268555 52.69848633 C11.44515498 55.81863168 11.38141177 58.93859633 11.31640625 62.05859375 C11.29133751 63.52733192 11.29133751 63.52733192 11.26576233 65.02574158 C11.24581711 65.92659988 11.22587189 66.82745819 11.20532227 67.75561523 C11.18977798 68.55281479 11.1742337 69.35001434 11.15821838 70.17137146 C11 72 11 72 10 73 C8.50261876 73.0979057 7.00057108 73.12974864 5.5 73.125 C4.6853125 73.12757813 3.870625 73.13015625 3.03125 73.1328125 C1 73 1 73 0 72 C-0.09436529 69.76070114 -0.11742327 67.5183825 -0.11352539 65.27709961 C-0.11367142 64.5746965 -0.11381744 63.8722934 -0.1139679 63.14860535 C-0.11326872 60.81648722 -0.10547617 58.484448 -0.09765625 56.15234375 C-0.09579208 54.53951562 -0.09436818 52.92668693 -0.09336853 51.31385803 C-0.08954323 47.06084643 -0.07971285 42.80786876 -0.06866455 38.55487061 C-0.05845069 34.2182257 -0.05387096 29.88157533 -0.04882812 25.54492188 C-0.03809059 17.02993058 -0.0204937 8.51497341 0 0 Z " fill="#FBFDFE" transform="translate(293,354)"/>
<path d="M0 0 C4.50235638 1.94067085 7.01417856 4.54393784 9.3203125 8.91796875 C10.62780742 12.92311124 10.22847638 16.83030604 10 21 C6.37 21 2.74 21 -1 21 C-1.66 18.03 -2.32 15.06 -3 12 C-5.90073181 11.32198966 -5.90073181 11.32198966 -9 11 C-11.38912397 12.96783176 -11.38912397 12.96783176 -11.375 16.6875 C-11.14646024 22.74924509 -8.78358683 26.32891634 -4.4609375 30.37890625 C-2.52287339 32.08973103 -0.58143992 33.79674621 1.36328125 35.5 C6.22434553 40.10900909 9.76321517 45.3343887 10.203125 52.14453125 C10.21859375 53.35496094 10.2340625 54.56539063 10.25 55.8125 C10.27578125 57.01519531 10.3015625 58.21789062 10.328125 59.45703125 C9.9082824 63.99033168 8.57375299 67.23319998 5.53515625 70.64453125 C-0.07680463 75.09539678 -4.99055466 75.65942517 -12 75 C-17.27322153 73.17465409 -19.79691086 70.39280797 -23 66 C-24.04976964 62.85069107 -24.10131595 60.61185544 -24.0625 57.3125 C-24.05347656 56.31863281 -24.04445312 55.32476562 -24.03515625 54.30078125 C-24.02355469 53.54152344 -24.01195312 52.78226562 -24 52 C-22.35425434 51.97311849 -20.70838587 51.95365877 -19.0625 51.9375 C-18.14597656 51.92589844 -17.22945312 51.91429687 -16.28515625 51.90234375 C-14 52 -14 52 -13 53 C-12.43118087 55.31082773 -11.97236639 57.63644097 -11.5 59.96875 C-11.1901935 61.98233957 -11.1901935 61.98233957 -10 63 C-7.66055264 62.71269945 -5.3260857 62.38063221 -3 62 C-2.42673207 56.22485636 -2.06724711 51.46132034 -5.625 46.625 C-7.61204521 44.32151668 -9.58128339 42.51765846 -11.9375 40.5625 C-18.78249154 34.8350581 -23.31166711 28.64295868 -24.24609375 19.625 C-24.55177319 13.54846335 -23.61084996 8.95920532 -20 4 C-14.67007275 -1.61044973 -7.20130788 -0.82960435 0 0 Z " fill="#FBFDFE" transform="translate(235,353)"/>
<path d="M0 0 C1.13432465 -0.00708481 2.26864929 -0.01416962 3.43734741 -0.02146912 C5.31301643 -0.01775299 5.31301643 -0.01775299 7.22657776 -0.01396179 C9.19488556 -0.02162819 9.19488556 -0.02162819 11.20295715 -0.02944946 C14.80832525 -0.04286871 18.41358871 -0.04341488 22.01897693 -0.04088616 C25.02605032 -0.03981838 28.03310237 -0.04469489 31.04017121 -0.04949158 C38.13308459 -0.06059699 45.22594503 -0.06101845 52.31886292 -0.05497742 C59.64205589 -0.04893626 66.96505681 -0.06124978 74.28821701 -0.08254749 C80.570218 -0.10014709 86.85215777 -0.10616743 93.13418251 -0.10290974 C96.88852377 -0.10109403 100.64272805 -0.10376149 104.39704704 -0.11762428 C108.58253884 -0.13250006 112.76763825 -0.12324693 116.95314026 -0.11161804 C118.20156204 -0.11926178 119.44998383 -0.12690552 120.73623657 -0.13478088 C122.44195328 -0.12425941 122.44195328 -0.12425941 124.18212891 -0.11352539 C125.66738902 -0.113777 125.66738902 -0.113777 127.18265438 -0.1140337 C129.65455627 0.26069641 129.65455627 0.26069641 131.50830173 1.62392902 C132.65455627 3.26069641 132.65455627 3.26069641 132.46705627 5.82319641 C131.65455627 8.26069641 131.65455627 8.26069641 129.65455627 10.26069641 C127.29008484 10.515172 127.29008484 10.515172 124.26441956 10.52139282 C122.54814362 10.53202003 122.54814362 10.53202003 120.79719543 10.54286194 C118.90514374 10.53914581 118.90514374 10.53914581 116.97486877 10.53535461 C115.63793146 10.53970004 114.30099664 10.54488261 112.96406555 10.55084229 C109.32777409 10.56426096 105.69158637 10.56480786 102.05527496 10.56227899 C99.02325409 10.56121135 95.9912544 10.56608722 92.95923805 10.57088441 C85.80883331 10.58198921 78.6584811 10.58241135 71.5080719 10.57637024 C64.12237561 10.57032649 56.73686964 10.5826493 49.35120583 10.60394031 C43.01741632 10.62153013 36.68368754 10.62756188 30.3498745 10.62430257 C26.56370752 10.62248559 22.77767632 10.625167 18.99153137 10.63901711 C15.43251378 10.65154869 11.87379395 10.64969618 8.31478119 10.63660622 C6.38048535 10.63309481 4.44618062 10.6444523 2.51191711 10.65617371 C1.36773315 10.64915939 0.22354919 10.64214508 -0.95530701 10.63491821 C-2.45301132 10.63516983 -2.45301132 10.63516983 -3.98097229 10.63542652 C-5.15138565 10.44993512 -5.15138565 10.44993512 -6.34544373 10.26069641 C-8.34544373 7.26069641 -8.34544373 7.26069641 -8.09544373 4.69819641 C-6.64299551 -0.02226028 -4.51082945 0.00935561 0 0 Z " fill="#F9FBFD" transform="translate(224.34544372558594,194.7393035888672)"/>
<path d="M0 0 C1.13432465 -0.00708481 2.26864929 -0.01416962 3.43734741 -0.02146912 C5.31301643 -0.01775299 5.31301643 -0.01775299 7.22657776 -0.01396179 C9.19488556 -0.02162819 9.19488556 -0.02162819 11.20295715 -0.02944946 C14.80832525 -0.04286871 18.41358871 -0.04341488 22.01897693 -0.04088616 C25.02605032 -0.03981838 28.03310237 -0.04469489 31.04017121 -0.04949158 C38.13308459 -0.06059699 45.22594503 -0.06101845 52.31886292 -0.05497742 C59.64205589 -0.04893626 66.96505681 -0.06124978 74.28821701 -0.08254749 C80.570218 -0.10014709 86.85215777 -0.10616743 93.13418251 -0.10290974 C96.88852377 -0.10109403 100.64272805 -0.10376149 104.39704704 -0.11762428 C108.58253884 -0.13250006 112.76763825 -0.12324693 116.95314026 -0.11161804 C118.20156204 -0.11926178 119.44998383 -0.12690552 120.73623657 -0.13478088 C122.44195328 -0.12425941 122.44195328 -0.12425941 124.18212891 -0.11352539 C125.66738902 -0.113777 125.66738902 -0.113777 127.18265438 -0.1140337 C129.65455627 0.26069641 129.65455627 0.26069641 131.50830173 1.58877277 C132.65455627 3.26069641 132.65455627 3.26069641 132.46705627 6.38569641 C132.19893127 7.33444641 131.93080627 8.28319641 131.65455627 9.26069641 C129.06952781 10.55321064 127.2048541 10.39243565 124.30911255 10.40113831 C122.60762558 10.40970352 122.60762558 10.40970352 120.87176514 10.41844177 C119.62131912 10.41955963 118.37087311 10.42067749 117.08253479 10.42182922 C115.11422699 10.42927658 115.11422699 10.42927658 113.1061554 10.43687439 C109.50081599 10.45000586 105.89549521 10.45644459 102.29013562 10.46088505 C100.03910333 10.46381407 97.78807615 10.46791851 95.53704643 10.47238922 C88.49816936 10.48606502 81.45930395 10.49573174 74.42041451 10.49959111 C66.28716856 10.50407472 58.15409044 10.52163616 50.02089554 10.55059171 C43.73890351 10.57218274 37.45695879 10.58229398 31.17493004 10.58363223 C27.42057629 10.58468196 23.66638028 10.59062525 19.91206551 10.60845184 C15.72659685 10.62793908 11.54148119 10.62365391 7.35597229 10.61714172 C5.48333961 10.6309639 5.48333961 10.6309639 3.57287598 10.64506531 C1.86715927 10.63671158 1.86715927 10.63671158 0.12698364 10.62818909 C-0.86318976 10.62965565 -1.85336317 10.63112221 -2.87354183 10.63263321 C-5.34544373 10.26069641 -5.34544373 10.26069641 -7.19918919 8.89788437 C-8.34544373 7.26069641 -8.34544373 7.26069641 -8.15794373 4.69819641 C-6.59513098 0.00975818 -4.54557804 0.00942768 0 0 Z " fill="#F9FBFD" transform="translate(163.34544372558594,235.7393035888672)"/>
<path d="M0 0 C1.31022881 -0.01062721 1.31022881 -0.01062721 2.64692688 -0.02146912 C3.6075 -0.0189917 4.56807312 -0.01651428 5.55775452 -0.01396179 C7.07252129 -0.02162819 7.07252129 -0.02162819 8.6178894 -0.02944946 C11.96907921 -0.04339409 15.32006447 -0.04238502 18.67127991 -0.04008484 C20.99294105 -0.0439691 23.31460149 -0.04830321 25.63626099 -0.05307007 C30.50790203 -0.06054278 35.37947062 -0.0602334 40.25111389 -0.05497742 C46.50383022 -0.04918156 52.75625046 -0.06611174 59.00891781 -0.08932209 C63.80521386 -0.1040314 68.60143815 -0.10493495 73.39775276 -0.10181236 C75.70350799 -0.10232699 78.00926708 -0.10759108 80.31500053 -0.11762428 C83.53543893 -0.12991693 86.75529468 -0.12323997 89.97572327 -0.11161804 C90.93427216 -0.11926178 91.89282104 -0.12690552 92.88041687 -0.13478088 C93.75672256 -0.12776657 94.63302826 -0.12075226 95.53588867 -0.11352539 C96.29745742 -0.11369313 97.05902617 -0.11386087 97.84367275 -0.1140337 C100.38421692 0.36490579 101.30058625 1.20656818 102.83143616 3.26069641 C102.58690492 6.60262333 102.22600058 7.86613199 99.83143616 10.26069641 C97.96672058 10.51237869 97.96672058 10.51237869 95.65614319 10.5146637 C94.34374664 10.52312317 94.34374664 10.52312317 93.00483704 10.53175354 C92.04269287 10.52770508 91.08054871 10.52365662 90.08924866 10.51948547 C88.57207245 10.52474243 88.57207245 10.52474243 87.02424622 10.53010559 C83.66824049 10.53893535 80.31244417 10.53306932 76.95643616 10.52632141 C74.63237975 10.5276677 72.30832362 10.52960793 69.98426819 10.53211975 C65.10842717 10.5350727 60.23265931 10.53076784 55.35682678 10.5214386 C49.09509965 10.51004402 42.83354395 10.51660257 36.57182312 10.52858353 C31.77128295 10.53579749 26.97078368 10.53351633 22.17024231 10.52832794 C19.86087524 10.52699016 17.55150451 10.52864363 15.24214172 10.53328705 C12.01920176 10.53834463 8.79654261 10.53065277 5.57362366 10.51948547 C4.13040741 10.52555817 4.13040741 10.52555817 2.65803528 10.53175354 C1.78310425 10.52611389 0.90817322 10.52047424 0.00672913 10.5146637 C-0.75576141 10.51390965 -1.51825195 10.51315559 -2.30384827 10.51237869 C-4.16856384 10.26069641 -4.16856384 10.26069641 -6.16856384 8.26069641 C-6.41856384 5.26069641 -6.41856384 5.26069641 -6.16856384 2.26069641 C-3.77320682 -0.13466061 -3.26318532 0.00880054 0 0 Z " fill="#FBFCFD" transform="translate(254.16856384277344,276.7393035888672)"/>
<path d="M0 0 C3.96 0 7.92 0 12 0 C12.09064758 7.81521625 12.16391456 15.63014118 12.20724869 23.44573975 C12.22805515 27.07551731 12.25624354 30.70491415 12.30175781 34.33447266 C12.34546659 37.84231263 12.36918921 41.3497882 12.37950897 44.85787964 C12.39041254 46.83644644 12.42159835 48.81486821 12.45318604 50.79321289 C12.45497508 58.02145093 11.97249821 62.8873299 8 69 C2.68362178 73.99417348 -3.10887296 73.08107208 -10 73 C-10 69.37 -10 65.74 -10 62 C-5.545 61.505 -5.545 61.505 -1 61 C-0.67 40.87 -0.34 20.74 0 0 Z " fill="#FBFDFE" transform="translate(193,354)"/>
<path d="M0 0 C0.75485687 0.00247742 1.50971375 0.00495483 2.28744507 0.00750732 C3.08271103 0.00239639 3.87797699 -0.00271454 4.69734192 -0.00798035 C7.33430442 -0.02191557 9.9710067 -0.02091663 12.60800171 -0.01861572 C14.43641762 -0.02250057 16.26483263 -0.0268348 18.09324646 -0.03160095 C21.92916792 -0.03907167 25.76499735 -0.03876579 29.60092163 -0.0335083 C34.52191762 -0.02771327 39.44253728 -0.04464129 44.36347103 -0.06785297 C48.14066275 -0.08256966 51.91776341 -0.08346483 55.69497871 -0.08034325 C57.50950427 -0.08085752 59.32403479 -0.08611516 61.13853264 -0.09615517 C63.67409741 -0.10846211 66.20892378 -0.10176278 68.74447632 -0.09014893 C69.49730896 -0.09779266 70.2501416 -0.1054364 71.02578735 -0.11331177 C76.08322142 -0.06198839 76.08322142 -0.06198839 78.55088806 1.64527893 C80.01203539 3.96786817 79.92497982 5.59645498 79.58065796 8.28216553 C77.06822735 10.79459614 75.5263606 10.52947069 72.09785461 10.56433105 C71.333647 10.56185364 70.56943939 10.55937622 69.78207397 10.55682373 C68.97705444 10.56193466 68.17203491 10.56704559 67.34262085 10.5723114 C64.67319366 10.58624716 62.00402351 10.58524764 59.33456421 10.58294678 C57.48372806 10.58683159 55.6328928 10.59116581 53.78205872 10.59593201 C49.89905917 10.60340284 46.01615053 10.60309676 42.13314819 10.59783936 C37.15161982 10.59204428 32.1704632 10.60897242 27.18899632 10.63218403 C23.36548173 10.64690029 19.5420571 10.64779594 15.71851921 10.6446743 C13.88166505 10.6451886 12.044806 10.65044661 10.2079792 10.66048622 C7.64128441 10.67279235 5.07531917 10.66609429 2.50863647 10.65447998 C1.74645309 10.66212372 0.98426971 10.66976746 0.19898987 10.67764282 C-4.91245555 10.62639519 -4.91245555 10.62639519 -7.42655945 8.91905212 C-8.41934204 7.28216553 -8.41934204 7.28216553 -8.23184204 4.71966553 C-6.67581018 0.05156996 -4.57495663 0.04708584 0 0 Z " fill="#F9FBFD" transform="translate(163.41934204101563,153.71783447265625)"/>
<path d="M0 0 C0.72680466 0.00247742 1.45360931 0.00495483 2.20243835 0.00750732 C2.9684436 0.00239639 3.73444885 -0.00271454 4.52366638 -0.00798035 C7.06323496 -0.02191388 9.60253329 -0.02091676 12.14213562 -0.01861572 C13.90329083 -0.02250067 15.6644451 -0.02683492 17.42559814 -0.03160095 C21.12028539 -0.03907131 24.81487709 -0.03876606 28.50956726 -0.0335083 C33.24896638 -0.02771342 37.98797474 -0.04464104 42.72730923 -0.06785297 C46.36553237 -0.08257099 50.00366101 -0.08346465 53.64190865 -0.08034325 C55.38944841 -0.08085746 57.13699333 -0.08611394 58.88450432 -0.09615517 C61.3266795 -0.1084647 63.76808833 -0.10176134 66.21025085 -0.09014893 C66.93503128 -0.09779266 67.65981171 -0.1054364 68.40655518 -0.11331177 C71.30814701 -0.08274999 73.30666645 -0.02861437 75.75531006 1.61012268 C76.77104187 3.28216553 76.77104187 3.28216553 76.58354187 6.40716553 C76.31541687 7.35591553 76.04729187 8.30466553 75.77104187 9.28216553 C72.75295926 10.79120683 69.63422873 10.42948892 66.32377625 10.4274292 C65.17235893 10.43246712 65.17235893 10.43246712 63.99768066 10.43760681 C61.45336807 10.44712722 58.90912118 10.44906034 56.36479187 10.45013428 C54.60124178 10.45334566 52.83769197 10.45670964 51.07414246 10.46022034 C47.37528363 10.46621402 43.67644818 10.46805995 39.97758484 10.46746826 C35.22920942 10.46736652 30.48098315 10.48102955 25.73264313 10.49824047 C22.09018764 10.50933699 18.44776851 10.51138821 14.80529785 10.51085854 C13.05414312 10.51204179 11.30298754 10.51648277 9.55184937 10.5241909 C7.10722778 10.53394534 4.66293391 10.53113115 2.2183075 10.52508545 C1.12574394 10.53351471 1.12574394 10.53351471 0.0111084 10.54211426 C-5.00064113 10.51048253 -5.00064113 10.51048253 -7.22895813 8.28216553 C-7.47895813 5.28216553 -7.47895813 5.28216553 -7.22895813 2.28216553 C-4.7639656 -0.182827 -3.3649404 0.03595055 0 0 Z " fill="#F9FBFD" transform="translate(208.2289581298828,112.71783447265625)"/>
<path d="M0 0 C1.29151474 -0.00630432 2.58302948 -0.01260864 3.91368103 -0.019104 C5.32990657 -0.01552395 6.74613087 -0.01142193 8.16235352 -0.00683594 C9.60962489 -0.00818276 11.05689583 -0.01012344 12.50416565 -0.01263428 C15.53976746 -0.01558567 18.57525168 -0.01128813 21.61083984 -0.00195312 C25.50270437 0.00943135 29.39429276 0.00288857 33.28614712 -0.00909805 C36.27584412 -0.01632499 39.26547566 -0.01402473 42.25517464 -0.00884247 C43.69010513 -0.00750775 45.12504156 -0.00914749 46.55996513 -0.01380157 C48.56601727 -0.01887905 50.57209022 -0.00976829 52.578125 0 C53.72014877 0.00159119 54.86217255 0.00318237 56.0388031 0.00482178 C58.85375977 0.25878906 58.85375977 0.25878906 61.85375977 2.25878906 C62.16625977 5.25878906 62.16625977 5.25878906 61.85375977 8.25878906 C59.09256397 11.01998486 57.48275211 10.51807451 53.61572266 10.53344727 C52.30418716 10.54297928 50.99265167 10.55251129 49.64137268 10.56233215 C48.20305352 10.56207073 46.76473435 10.56113372 45.32641602 10.55957031 C43.85672382 10.56345583 42.38703275 10.5677902 40.91734314 10.57255554 C37.83466962 10.58002397 34.75211062 10.57972212 31.66943359 10.57446289 C27.71694828 10.5686688 23.76493165 10.58559429 19.81252384 10.60880756 C16.77649693 10.62353274 13.74058319 10.62441827 10.7045269 10.62129784 C9.2472586 10.62181171 7.78998407 10.62706192 6.33275032 10.63710976 C4.29560029 10.64943122 2.25835583 10.64075529 0.22119141 10.63110352 C-1.51849159 10.63204765 -1.51849159 10.63204765 -3.2933197 10.63301086 C-6.14624023 10.25878906 -6.14624023 10.25878906 -8.05592346 8.89567566 C-9.14624023 7.25878906 -9.14624023 7.25878906 -8.95874023 4.69628906 C-7.28565062 -0.32297978 -4.82264433 0.00672409 0 0 Z " fill="#FAFCFD" transform="translate(164.146240234375,276.7412109375)"/>
<path d="M0 0 C2.9375 0.875 2.9375 0.875 4.9375 3.875 C5.19819641 5.95518494 5.19819641 5.95518494 5.2121582 8.37475586 C5.22169022 9.28257309 5.23122223 10.19039032 5.24104309 11.12571716 C5.24013168 12.10387894 5.23922028 13.08204071 5.23828125 14.08984375 C5.24256638 15.09713028 5.2468515 16.10441681 5.25126648 17.14222717 C5.257011 19.2731145 5.25750915 21.40402145 5.25317383 23.53491211 C5.25001559 26.79640143 5.27346596 30.05698236 5.29882812 33.31835938 C5.30110126 35.38801969 5.30180455 37.45768244 5.30078125 39.52734375 C5.309991 40.50348129 5.31920074 41.47961884 5.32868958 42.4853363 C5.32246078 43.39630569 5.31623199 44.30727509 5.30981445 45.24584961 C5.31044388 46.04510361 5.3110733 46.8443576 5.3117218 47.66783142 C4.84935421 50.39488585 3.72446809 51.80493542 1.9375 53.875 C-4.9375 53 -4.9375 53 -6.0625 51.875 C-6.17128142 50.35662227 -6.21153597 48.83325655 -6.22363281 47.31103516 C-6.23324036 46.33977692 -6.2428479 45.36851868 -6.25274658 44.36782837 C-6.25699646 43.31058563 -6.26124634 42.2533429 -6.265625 41.1640625 C-6.27132507 40.08498627 -6.27702515 39.00591003 -6.28289795 37.89413452 C-6.29236463 35.60586533 -6.29888852 33.31758241 -6.30273438 31.02929688 C-6.31243942 27.52189423 -6.34344743 24.01507743 -6.375 20.5078125 C-6.38152967 18.289066 -6.38678028 16.07031528 -6.390625 13.8515625 C-6.4029718 12.79836823 -6.4153186 11.74517395 -6.42803955 10.6600647 C-6.42503845 9.68250214 -6.42203735 8.70493958 -6.41894531 7.69775391 C-6.42259094 6.83695221 -6.42623657 5.97615051 -6.42999268 5.08926392 C-6.0625 2.875 -6.0625 2.875 -4.73162842 1.06576538 C-3.0625 -0.125 -3.0625 -0.125 0 0 Z " fill="#40A2F6" transform="translate(269.0625,363.125)"/>
<path d="M0 0 C0.72397476 0.00091141 1.44794952 0.00182281 2.19386292 0.00276184 C2.93858353 -0.00152328 3.68330414 -0.00580841 4.45059204 -0.01022339 C6.02670779 -0.01596972 7.60285007 -0.01646471 9.17897034 -0.01213074 C11.59129608 -0.00897356 14.00239229 -0.03241447 16.41456604 -0.05778503 C17.94516345 -0.06005828 19.47576416 -0.0607614 21.00636292 -0.05973816 C21.72831345 -0.06894791 22.45026398 -0.07815765 23.1940918 -0.08764648 C26.14838618 -0.06034524 28.17866317 -0.03041058 30.65699768 1.66609192 C31.66651917 3.30354309 31.66651917 3.30354309 31.47901917 5.86604309 C30.66651917 8.30354309 30.66651917 8.30354309 28.66651917 10.30354309 C26.03732613 10.5154229 23.51605501 10.60752563 20.88526917 10.60432434 C19.73133667 10.61075203 19.73133667 10.61075203 18.55409241 10.61730957 C16.92670171 10.62305566 15.29928533 10.62355107 13.67189026 10.61921692 C11.17616704 10.61605531 8.68162709 10.63951667 6.18605042 10.66487122 C4.60662483 10.66714396 3.02719605 10.66784782 1.44776917 10.66682434 C0.32429077 10.68063896 0.32429077 10.68063896 -0.82188416 10.69473267 C-2.92527771 10.67585754 -2.92527771 10.67585754 -6.33348083 10.30354309 C-8.33348083 7.30354309 -8.33348083 7.30354309 -8.08348083 4.74104309 C-6.64985732 0.08176666 -4.51291798 0.06412137 0 0 Z " fill="#F7FAFC" transform="translate(325.33348083496094,235.6964569091797)"/>
<path d="M0 0 C0.72397476 0.00091141 1.44794952 0.00182281 2.19386292 0.00276184 C2.93858353 -0.00152328 3.68330414 -0.00580841 4.45059204 -0.01022339 C6.02670779 -0.01596972 7.60285007 -0.01646471 9.17897034 -0.01213074 C11.59129608 -0.00897356 14.00239229 -0.03241447 16.41456604 -0.05778503 C17.94516345 -0.06005828 19.47576416 -0.0607614 21.00636292 -0.05973816 C21.72831345 -0.06894791 22.45026398 -0.07815765 23.1940918 -0.08764648 C26.12780284 -0.06053546 28.18009448 -0.02020412 30.66090393 1.63093567 C31.66651917 3.30354309 31.66651917 3.30354309 31.41651917 6.42854309 C30.66651917 9.30354309 30.66651917 9.30354309 29.66651917 10.30354309 C27.10802481 10.42927699 24.5779733 10.49218196 22.01808167 10.50666809 C21.24975006 10.51236816 20.48141846 10.51806824 19.68980408 10.52394104 C18.06063724 10.53340489 16.43145114 10.5399305 14.80226135 10.54377747 C12.30875713 10.55347604 9.81607945 10.5844822 7.32276917 10.61604309 C5.74204491 10.6225736 4.16131474 10.62782389 2.58058167 10.63166809 C1.8336203 10.64401489 1.08665894 10.65636169 0.31706238 10.66908264 C-4.8270102 10.64694226 -4.8270102 10.64694226 -7.33982849 8.94319153 C-8.33348083 7.30354309 -8.33348083 7.30354309 -8.14598083 4.74104309 C-6.60442103 0.11636368 -4.54393425 0.06456206 0 0 Z " fill="#F8FAFC" transform="translate(163.33348083496094,194.6964569091797)"/>
<path d="M0 0 C1.24330078 -0.00257813 2.48660156 -0.00515625 3.76757812 -0.0078125 C5.7253418 0.00378906 5.7253418 0.00378906 7.72265625 0.015625 C9.02396484 0.00789062 10.32527344 0.00015625 11.66601562 -0.0078125 C13.53290039 -0.00394531 13.53290039 -0.00394531 15.4375 0 C16.58210693 0.00225586 17.72671387 0.00451172 18.90600586 0.00683594 C21.78515625 0.265625 21.78515625 0.265625 24.78515625 2.265625 C25.09765625 5.265625 25.09765625 5.265625 24.78515625 8.265625 C21.42658659 11.62419466 17.01051198 10.56278021 12.44726562 10.58789062 C11.7746167 10.58571533 11.10196777 10.58354004 10.40893555 10.58129883 C8.35867011 10.57814196 6.3098522 10.6015826 4.25976562 10.62695312 C2.97005859 10.62759766 1.68035156 10.62824219 0.3515625 10.62890625 C-0.83493896 10.63188721 -2.02144043 10.63486816 -3.24389648 10.63793945 C-6.21484375 10.265625 -6.21484375 10.265625 -8.13696289 8.90307617 C-9.21484375 7.265625 -9.21484375 7.265625 -9.02734375 4.703125 C-7.3470795 -0.33766774 -4.84031453 0.00954899 0 0 Z " fill="#F7FAFC" transform="translate(273.21484375,153.734375)"/>
<path d="M0 0 C1.18819336 -0.00386719 1.18819336 -0.00386719 2.40039062 -0.0078125 C3.22861328 -0.00007813 4.05683594 0.00765625 4.91015625 0.015625 C5.73451172 0.00789063 6.55886719 0.00015625 7.40820312 -0.0078125 C8.20162109 -0.00523438 8.99503906 -0.00265625 9.8125 0 C10.90099243 0.00338379 10.90099243 0.00338379 12.01147461 0.00683594 C13.97265625 0.265625 13.97265625 0.265625 16.97265625 2.265625 C17.28515625 5.265625 17.28515625 5.265625 16.97265625 8.265625 C14.15271755 11.0855637 12.04361466 10.55525338 8.18945312 10.58789062 C7.31353516 10.58466797 6.43761719 10.58144531 5.53515625 10.578125 C4.66310547 10.59423828 3.79105469 10.61035156 2.89257812 10.62695312 C1.63477539 10.62791992 1.63477539 10.62791992 0.3515625 10.62890625 C-0.41599365 10.63188721 -1.1835498 10.63486816 -1.97436523 10.63793945 C-4.56273432 10.16853015 -5.47401779 9.35972695 -7.02734375 7.265625 C-6.65426899 2.16693666 -5.15332578 0.01604505 0 0 Z " fill="#F6F9FC" transform="translate(162.02734375,112.734375)"/>
</svg>
